<svg width="636" height="120" viewBox="0 0 636 120" fill="none" xmlns="http://www.w3.org/2000/svg">
  <g clip-path="url(#clip0_7570_174581)">
  <mask id="mask0_7570_174581" style="mask-type:luminance" maskUnits="userSpaceOnUse" x="0" y="0" width="120" height="120">
  <path d="M120 0H0V120H120V0Z" fill="white"/>
  </mask>
  <g mask="url(#mask0_7570_174581)">
  <path d="M0 46.08C0 29.952 0 21.884 3.14 15.724C5.9 10.304 10.308 5.9 15.728 3.136C21.884 0 29.952 0 46.08 0H73.92C90.048 0 98.116 0 104.276 3.14C109.696 5.9 114.1 10.308 116.864 15.728C120.004 21.888 120.004 29.952 120.004 46.084V73.924C120.004 90.052 120.004 98.12 116.864 104.28C114.104 109.7 109.696 114.104 104.276 116.868C98.116 120.008 90.052 120.008 73.92 120.008H46.08C29.952 120.008 21.884 120.008 15.724 116.868C10.304 114.108 5.9 109.7 3.136 104.28C0 98.116 0 90.048 0 73.92V46.08Z" fill="#0331FC"/>
  <path d="M79.5359 36.9121C76.076 33.9081 71.748 31.9841 67.132 31.3921L66.828 33.7721C70.984 34.3041 74.868 36.0361 77.964 38.7201L79.5359 36.9081V36.9121ZM67.132 31.3921C62.516 30.8001 57.8159 31.5641 53.66 33.5881L54.712 35.7441C58.444 33.9281 62.672 33.2361 66.828 33.7721L67.132 31.3921ZM53.66 33.5881C49.5039 35.6121 46.076 38.8001 43.848 42.7441L45.9359 43.9281C47.92 40.4201 50.98 37.5681 54.712 35.7481L53.66 33.5921V33.5881ZM45.072 42.1481C43.868 41.9641 42.652 41.8721 41.432 41.8761L41.44 44.2761C42.536 44.2761 43.628 44.3561 44.712 44.5201L45.072 42.1481ZM41.4359 41.8761C29.308 41.8761 19.2 50.6521 19.2 61.7361H21.6C21.6 52.2401 30.3559 44.2761 41.4359 44.2761V41.8761ZM19.2 61.7361C19.2 71.9241 27.768 80.2921 38.892 81.4521L39.14 79.0641C29 78.0081 21.6 70.4681 21.6 61.7361H19.2ZM38.892 81.4521C39.924 81.5601 40.964 81.2721 41.788 80.6401L40.3239 78.7361C39.996 78.9881 39.572 79.1081 39.14 79.0641L38.892 81.4521ZM41.788 80.6401C42.612 80.0081 43.152 79.0721 43.268 78.0401L40.884 77.7681C40.844 78.1361 40.648 78.4881 40.3239 78.7361L41.788 80.6401ZM43.268 78.0401C43.384 77.0041 43.068 75.9761 42.396 75.1801L40.56 76.7241C40.812 77.0281 40.924 77.4001 40.884 77.7681L43.268 78.0401ZM42.396 75.1801C41.728 74.3841 40.768 73.8881 39.736 73.7801L39.488 76.1681C39.92 76.2121 40.304 76.4201 40.56 76.7241L42.396 75.1801ZM39.684 73.7761C36.388 73.5841 33.296 72.2321 30.996 69.9921L29.32 71.7121C32.04 74.3641 35.684 75.9481 39.54 76.1721L39.68 73.7761H39.684ZM30.996 69.9921C28.7 67.7561 27.36 64.7921 27.22 61.6801L24.824 61.7881C24.988 65.5241 26.596 69.0601 29.32 71.7121L30.996 69.9921ZM27.224 61.7321C27.224 55.2161 33.464 49.5961 41.496 49.5961V47.1961C32.484 47.1961 24.824 53.5681 24.824 61.7321H27.224ZM41.488 49.5961C42.852 49.6041 44.204 49.7761 45.52 50.1121L46.112 47.7881C44.608 47.4041 43.056 47.2041 41.5 47.1961L41.488 49.5961ZM45.52 50.1121C46.448 50.3481 47.432 50.2521 48.2959 49.8361L47.256 47.6721C46.904 47.8401 46.496 47.8801 46.112 47.7841L45.52 50.1081V50.1121ZM48.2959 49.8361C49.16 49.4201 49.848 48.7081 50.212 47.8241L47.996 46.9041C47.864 47.2281 47.604 47.5041 47.252 47.6721L48.292 49.8361H48.2959ZM50.208 47.8401C51.464 44.9201 53.696 42.4641 56.576 40.8721L55.412 38.7721C52.08 40.6161 49.472 43.4681 48 46.8921L50.204 47.8401H50.208ZM56.576 40.8721C59.456 39.2801 62.8079 38.6401 66.1159 39.0601L66.42 36.6801C62.616 36.1961 58.7479 36.9321 55.416 38.7721L56.58 40.8721H56.576ZM66.1159 39.0601C69.4199 39.4801 72.4799 40.9361 74.8159 43.1841L76.4799 41.4561C73.764 38.8401 70.2239 37.1641 66.416 36.6801L66.1119 39.0601H66.1159ZM74.8159 43.1841C77.152 45.4361 78.636 48.3521 79.048 51.4801L81.428 51.1681C80.944 47.4881 79.2 44.0761 76.4799 41.4561L74.8159 43.1841ZM79.048 51.4761C79.1759 52.5001 79.72 53.4201 80.5359 54.0481L82 52.1441C81.672 51.8921 81.476 51.5401 81.428 51.1721L79.048 51.4721V51.4761ZM80.5359 54.0481C81.352 54.6761 82.384 54.9681 83.408 54.8721L83.188 52.4841C82.752 52.5241 82.324 52.4001 81.996 52.1481L80.532 54.0521L80.5359 54.0481ZM83.2999 54.8801C90.116 54.8801 95.212 59.3681 95.212 64.3441H97.612C97.612 57.6081 90.96 52.4801 83.2999 52.4801V54.8801ZM95.212 64.3441C95.212 69.3121 90.0639 73.8081 83.1719 73.8081V76.2081C90.8839 76.2081 97.612 71.0881 97.612 64.3441H95.212ZM83.184 73.8081C82.656 73.8081 82.132 73.9001 81.644 74.0961L82.532 76.3241C82.732 76.2441 82.948 76.2041 83.164 76.2041L83.184 73.8041V73.8081ZM81.644 74.0961C81.156 74.2921 80.708 74.5801 80.332 74.9481L82.012 76.6641C82.156 76.5201 82.336 76.4081 82.532 76.3281L81.644 74.1001V74.0961ZM80.332 74.9481C79.956 75.3161 79.66 75.7561 79.4599 76.2441L81.684 77.1521C81.756 76.9761 81.868 76.8081 82.012 76.6681L80.332 74.9521V74.9481ZM79.4599 76.2441C79.2599 76.7321 79.168 77.2521 79.184 77.7801L81.584 77.7041C81.58 77.5161 81.612 77.3281 81.684 77.1521L79.4599 76.2441ZM79.184 77.7601C79.2 78.8001 79.644 79.7801 80.4 80.4921L82.048 78.7441C81.7519 78.4641 81.592 78.0961 81.588 77.7201L79.188 77.7561L79.184 77.7601ZM80.4 80.4921C81.156 81.2041 82.16 81.5921 83.196 81.5921V79.1921C82.756 79.1921 82.344 79.0241 82.044 78.7441L80.396 80.4921H80.4ZM83.196 81.5921C94.008 81.5921 103.2 74.0681 103.2 64.4041H100.8C100.8 72.3921 93.068 79.1921 83.196 79.1921V81.5921ZM103.2 64.3921C103.108 55.3761 95.224 48.2961 85.448 47.3201L85.208 49.7081C94.092 50.5921 100.724 56.9281 100.8 64.4161L103.2 64.3921ZM86.496 48.2281C85.428 43.8561 82.9959 39.9121 79.5359 36.9041L77.964 38.7161C81.06 41.4041 83.22 44.9201 84.164 48.7961L86.496 48.2241V48.2281ZM44.892 43.3281L44.712 44.5161L45.528 44.6401L45.9359 43.9201L44.892 43.3281ZM39.616 74.9721L39.74 73.7801H39.712L39.684 73.7761L39.616 74.9721ZM26.024 61.7361H24.824V61.7881L26.024 61.7361ZM41.496 48.4001L41.504 47.2001V48.4001H41.496ZM49.108 47.3761L48.004 46.9041V46.9121L48 46.9201L49.108 47.3801V47.3761ZM80.236 51.3361L81.428 51.1841V51.1801L80.24 51.3361H80.236ZM83.296 53.6881V52.4881H83.188L83.296 53.6881ZM83.1719 75.0201L83.164 76.2201H83.1679H83.1719V75.0201ZM80.38 77.7481L81.58 77.7281V77.7201V77.7121L80.38 77.7481ZM102 64.4121H103.2V64.4001L102 64.4121ZM85.328 48.5201L84.164 48.8041L84.364 49.6281L85.208 49.7121L85.328 48.5161V48.5201Z" fill="white"/>
  <path d="M78.7481 37.82C82.0241 40.668 84.3201 44.4 85.3281 48.52C94.6561 49.452 101.916 56.16 102 64.408C102 73.232 93.5401 80.396 83.1961 80.396C82.4561 80.396 81.7481 80.116 81.2201 79.62C80.6921 79.124 80.3921 78.448 80.3801 77.744C80.3681 77.388 80.4321 77.032 80.5681 76.7C80.7041 76.368 80.9081 76.064 81.1681 75.812C81.4281 75.556 81.7401 75.356 82.0841 75.22C82.4281 75.084 82.7961 75.012 83.1721 75.016C90.4721 75.016 96.4121 70.208 96.4121 64.352C96.4121 58.496 90.5361 53.688 83.3001 53.688C82.5681 53.756 81.8401 53.548 81.2681 53.108C80.6961 52.668 80.3281 52.032 80.2401 51.336C79.7921 47.932 78.1761 44.764 75.6521 42.332C73.1281 39.9 69.8281 38.332 66.2721 37.88C62.7161 37.428 59.1041 38.116 56.0001 39.832C52.8961 41.552 50.4721 44.204 49.1121 47.376C48.8601 47.98 48.3881 48.472 47.7841 48.764C47.1761 49.056 46.4801 49.124 45.8241 48.956C44.4121 48.596 42.9601 48.408 41.5001 48.4C32.9801 48.4 26.0281 54.396 26.0281 61.736C26.1801 65.16 27.6521 68.408 30.1641 70.852C32.6761 73.296 36.0441 74.764 39.6201 74.972C40.3521 75.048 41.0241 75.4 41.4841 75.948C41.9441 76.496 42.1601 77.2 42.0801 77.9C42.0001 78.6 41.6321 79.244 41.0601 79.684C40.4841 80.124 39.7521 80.332 39.0201 80.256C28.3881 79.148 20.4041 71.192 20.4041 61.736C20.4041 51.448 29.8361 43.076 41.4401 43.076C42.5961 43.076 43.7521 43.16 44.8961 43.332C47.0041 39.608 50.2441 36.584 54.1881 34.664C58.1321 32.744 62.5961 32.016 66.9841 32.58C71.3721 33.144 75.4761 34.968 78.7521 37.816L78.7481 37.82Z" fill="white"/>
  <path d="M65.4359 68.816C66.2079 65.936 69.1679 64.224 72.0479 64.996C74.9279 65.768 76.6399 68.728 75.8679 71.608L72.4519 84.36C71.6799 87.24 68.7199 88.952 65.8399 88.18C62.9599 87.408 61.2479 84.448 62.0199 81.568L65.4359 68.816Z" fill="white"/>
  <path opacity="0.5" d="M49.7521 72.4161C50.5241 69.5361 53.4841 67.8241 56.3641 68.5961C59.2441 69.3681 60.9561 72.3281 60.1841 75.2081L58.6321 81.0041C57.8601 83.8841 54.9001 85.5961 52.0201 84.8241C49.1401 84.0521 47.4281 81.0921 48.2001 78.2121L49.7521 72.4161Z" fill="white"/>
  </g>
  </g>
  <g clip-path="url(#clip1_7570_174581)">
  <path d="M152 60.5301C152 53.6901 153.31 47.6901 155.93 42.5201C158.62 37.2901 162.39 33.2601 167.25 30.4201C172.17 27.5201 177.9 26.0601 184.42 26.0601C189.47 26.0601 194.01 27.0301 198.04 28.9601C202.13 30.9001 205.46 33.6701 208.02 37.2901C210.58 40.8401 212.21 44.9701 212.91 49.6801H201.88C200.79 45.3601 198.68 41.9701 195.55 39.5101C192.42 37.0601 188.55 35.8301 183.94 35.8301C179.78 35.8301 176.14 36.9001 173 39.0301C169.87 41.1001 167.47 44.0001 165.8 47.7401C164.14 51.4201 163.31 55.6801 163.31 60.5201C163.31 65.3601 164.14 69.5601 165.8 73.3001C167.46 77.0401 169.86 79.9801 173 82.1101C176.13 84.1801 179.78 85.2101 183.94 85.2101C188.55 85.2101 192.38 83.9801 195.45 81.5301C198.58 79.0801 200.69 75.6901 201.78 71.3601H212.81C212.11 76.1401 210.48 80.3001 207.92 83.8501C205.43 87.4001 202.16 90.1401 198.13 92.0801C194.1 94.0201 189.53 94.9801 184.41 94.9801C177.89 94.9801 172.16 93.5601 167.24 90.7201C162.38 87.8801 158.61 83.8801 155.92 78.7101C153.3 73.4801 151.99 67.4101 151.99 60.5101L152 60.5301Z" fill="#0F172A"/>
  <path d="M242.57 86.09C246.92 86.09 250.4 84.57 253.03 81.54C255.72 78.44 257.06 74.47 257.06 69.63C257.06 64.79 255.72 60.85 253.03 57.82C250.41 54.72 246.92 53.17 242.57 53.17C238.22 53.17 234.74 54.72 232.11 57.82C229.49 60.85 228.18 64.79 228.18 69.63C228.18 74.47 229.49 78.44 232.11 81.54C234.73 84.57 238.22 86.09 242.57 86.09ZM242.57 95C237.65 95 233.26 93.97 229.43 91.9C225.66 89.77 222.71 86.8 220.6 82.99C218.55 79.12 217.53 74.66 217.53 69.63C217.53 64.6 218.55 60.27 220.6 56.46C222.71 52.59 225.65 49.59 229.43 47.46C233.27 45.33 237.65 44.26 242.57 44.26C247.49 44.26 251.84 45.33 255.62 47.46C259.46 49.59 262.4 52.59 264.45 56.46C266.56 60.27 267.62 64.66 267.62 69.63C267.62 74.6 266.56 79.12 264.45 82.99C262.4 86.8 259.46 89.77 255.62 91.9C251.85 93.97 247.5 95 242.57 95Z" fill="#0F172A"/>
  <path d="M299.93 44.27C305.75 44.27 310.48 46.08 314.13 49.69C317.84 53.3 319.69 59.11 319.69 67.12V94.42H309.23V67.7C309.23 62.99 308.24 59.41 306.26 56.95C304.28 54.5 301.37 53.27 297.53 53.27C293.44 53.27 290.21 54.72 287.84 57.63C285.54 60.47 284.39 64.41 284.39 69.44V94.42H274.03V44.85H283.05L284.2 51.34C287.91 46.63 293.15 44.27 299.93 44.27Z" fill="#0F172A"/>
  <path d="M330.36 54.05H321.82V44.85H330.36V31H340.82V44.85H352.62V54.05H340.82V79.9C340.82 81.84 341.2 83.22 341.97 84.06C342.74 84.83 344.05 85.22 345.9 85.22H353.77V94.42H343.79C339.12 94.42 335.7 93.32 333.52 91.13C331.41 88.94 330.35 85.55 330.35 80.96V54.04L330.36 54.05Z" fill="#0F172A"/>
  <path d="M392.16 64.21C391.71 60.6 390.27 57.79 387.84 55.79C385.47 53.72 382.47 52.69 378.82 52.69C375.43 52.69 372.49 53.76 369.99 55.89C367.56 57.96 366.15 60.73 365.77 64.22H392.15L392.16 64.21ZM354.55 69.73C354.55 64.63 355.54 60.18 357.52 56.37C359.57 52.5 362.38 49.53 365.96 47.46C369.61 45.33 373.76 44.26 378.43 44.26C383.1 44.26 387.32 45.23 390.9 47.16C394.55 49.1 397.39 51.84 399.44 55.39C401.55 58.94 402.64 63.1 402.7 67.88C402.7 69.17 402.6 70.49 402.41 71.85H365.38V72.43C365.64 76.75 366.98 80.18 369.41 82.69C371.84 85.21 375.07 86.47 379.1 86.47C382.3 86.47 384.98 85.73 387.16 84.24C389.33 82.69 390.77 80.53 391.48 77.75H401.84C400.94 82.78 398.51 86.92 394.55 90.14C390.65 93.37 385.76 94.98 379.87 94.98C374.75 94.98 370.28 93.95 366.44 91.88C362.67 89.75 359.72 86.78 357.61 82.97C355.56 79.16 354.54 74.74 354.54 69.71L354.55 69.73Z" fill="#0F172A"/>
  <path d="M435.08 44.27C440.9 44.27 445.63 46.08 449.28 49.69C452.99 53.3 454.84 59.11 454.84 67.12V94.42H444.38V67.7C444.38 62.99 443.39 59.41 441.41 56.95C439.43 54.5 436.52 53.27 432.68 53.27C428.59 53.27 425.36 54.72 422.99 57.63C420.69 60.47 419.54 64.41 419.54 69.44V94.42H409.18V44.85H418.2L419.35 51.34C423.06 46.63 428.3 44.27 435.08 44.27Z" fill="#0F172A"/>
  <path d="M465.51 54.05H456.97V44.85H465.51V31H475.97V44.85H487.77V54.05H475.97V79.9C475.97 81.84 476.35 83.22 477.12 84.06C477.89 84.83 479.2 85.22 481.05 85.22H488.92V94.42H478.94C474.27 94.42 470.85 93.32 468.67 91.13C466.56 88.94 465.5 85.55 465.5 80.96V54.04L465.51 54.05Z" fill="#0F172A"/>
  <path d="M519.71 44.8501V54.6301H515.1C510.81 54.6301 507.71 56.0501 505.79 58.8901C503.87 61.6701 502.91 65.2201 502.91 69.5401V94.4201H492.55V44.8501H501.76L502.91 52.3101C504.32 49.9901 506.14 48.1801 508.38 46.8901C510.62 45.5301 513.62 44.8601 517.4 44.8601H519.7L519.71 44.8501Z" fill="#0F172A"/>
  <path d="M540.25 86.87C544.54 86.87 547.86 85.71 550.23 83.38C552.66 81.06 553.91 77.96 553.97 74.09V72.35H541.11C537.91 72.35 535.45 73 533.72 74.29C531.99 75.52 531.13 77.36 531.13 79.81C531.13 81.94 531.93 83.65 533.53 84.94C535.19 86.23 537.43 86.88 540.25 86.88V86.87ZM543.61 44.27C550.2 44.27 555.28 45.82 558.86 48.92C562.44 52.02 564.23 56.44 564.23 62.18V94.42H555.21L554.35 87.35C552.5 89.8 550.29 91.71 547.73 93.06C545.24 94.35 542.17 95 538.52 95C533.08 95 528.73 93.71 525.47 91.13C522.21 88.55 520.58 85 520.58 80.48C520.58 75.38 522.37 71.48 525.95 68.76C529.6 65.98 534.84 64.6 541.68 64.6H553.96V61.6C553.96 58.82 553 56.66 551.08 55.11C549.16 53.5 546.51 52.69 543.12 52.69C540.11 52.69 537.62 53.34 535.64 54.63C533.72 55.92 532.57 57.7 532.19 59.96H522.02C522.53 54.99 524.71 51.15 528.54 48.44C532.38 45.66 537.4 44.28 543.6 44.28L543.61 44.27Z" fill="#0F172A"/>
  <path d="M571.73 44.85H582.09V94.42H571.73V44.85ZM576.91 25C578.7 25 580.2 25.61 581.42 26.84C582.64 28 583.24 29.49 583.24 31.29C583.24 33.09 582.63 34.61 581.42 35.84C580.2 37 578.7 37.58 576.91 37.58C575.12 37.58 573.62 37 572.4 35.84C571.18 34.61 570.58 33.1 570.58 31.29C570.58 29.48 571.19 28 572.4 26.84C573.62 25.61 575.12 25 576.91 25Z" fill="#0F172A"/>
  <path d="M616.24 44.27C622.06 44.27 626.79 46.08 630.44 49.69C634.15 53.3 636 59.11 636 67.12V94.42H625.54V67.7C625.54 62.99 624.55 59.41 622.57 56.95C620.59 54.5 617.68 53.27 613.84 53.27C609.75 53.27 606.52 54.72 604.15 57.63C601.85 60.47 600.7 64.41 600.7 69.44V94.42H590.34V44.85H599.36L600.51 51.34C604.22 46.63 609.46 44.27 616.24 44.27Z" fill="#0F172A"/>
  </g>
  <defs>
  <clipPath id="clip0_7570_174581">
  <rect width="120" height="120" fill="white"/>
  </clipPath>
  <clipPath id="clip1_7570_174581">
  <rect width="484" height="70" fill="white" transform="translate(152 25)"/>
  </clipPath>
  </defs>
  </svg>
  